<?xml version="1.0" encoding="utf-8"?>
<!-- Generator: Adobe Illustrator 25.4.1, SVG Export Plug-In . SVG Version: 6.00 Build 0)  -->
<svg version="1.1" id="Layer_1" xmlns="http://www.w3.org/2000/svg" xmlns:xlink="http://www.w3.org/1999/xlink" x="0px" y="0px"
	 viewBox="0 0 1043 1080" style="enable-background:new 0 0 1043 1080;" xml:space="preserve">
<style type="text/css">
	.st0{fill:url(#SVGID_1_);}
	.st1{fill:url(#SVGID_00000173152284628860284480000010446208996371209144_);}
	.st2{fill:url(#SVGID_00000161596223172660995940000016510444897074124223_);}
	.st3{fill:url(#SVGID_00000107561084254767045820000004573898381484647567_);}
	.st4{fill:url(#SVGID_00000021092433158612796830000007549873975502308225_);}
	.st5{opacity:0.39;fill:url(#SVGID_00000070108463657682291430000007474245686692529539_);}
	.st6{fill:url(#SVGID_00000077316065908686047680000004712026303103319469_);}
	.st7{fill:url(#SVGID_00000024715965652292909590000006904604205339460019_);}
	.st8{fill:url(#SVGID_00000107557943029112209910000001751304235006849968_);}
</style>
<g>
	<linearGradient id="SVGID_1_" gradientUnits="userSpaceOnUse" x1="528.1685" y1="606.2302" x2="528.1685" y2="131.8451">
		<stop  offset="0" style="stop-color:#24B3C2"/>
		<stop  offset="1" style="stop-color:#5EFFA4"/>
	</linearGradient>
	<path class="st0" d="M637.26,390c-22.15,32.54-57.61,89.33-104.25,79.02c-74.33-16.43-153.63-219.88-276.05-337.17
		c96.56,103.98,162.82,251.16,183.89,408.45c2.83,21.15,4.82,42.46,6.02,63.84c22.6,1.38,45.48,2.09,68.6,2.09
		c54.64,0,107.95-3.95,159.38-11.44c0.15-14.09,0.55-28.17,1.21-42.26c7.11-151.14,46.11-302.56,123.33-419.07
		C736.52,225.81,700.12,297.64,637.26,390z"/>
	
		<linearGradient id="SVGID_00000096774401550131512750000010461259985511761334_" gradientUnits="userSpaceOnUse" x1="216.3283" y1="571.8649" x2="216.3283" y2="88.6823">
		<stop  offset="0" style="stop-color:#FFFFFF"/>
		<stop  offset="1" style="stop-color:#000000"/>
	</linearGradient>
	<path style="fill:url(#SVGID_00000096774401550131512750000010461259985511761334_);" d="M178.66,88.68
		c24.97,50.25,44.62,115.56,52.22,173.97c7.6,58.41-3.58,123.77-39.09,162.82c-43.64,47.99-109.18,44.14-166.32,31.12
		c1.65,1.42,3.28,2.83,4.92,4.24c106.48,58.55,235.62,98.03,376.77,111.03c-1.19-30.4-4.1-60.27-9.04-89.21
		C371.14,324.44,289.06,172.72,178.66,88.68z"/>
	
		<linearGradient id="SVGID_00000066492675729282292010000001433503362857059216_" gradientUnits="userSpaceOnUse" x1="528.1685" y1="1001.5257" x2="528.1685" y2="131.8451">
		<stop  offset="0" style="stop-color:#24B3C2"/>
		<stop  offset="1" style="stop-color:#5EFFA4"/>
	</linearGradient>
	<path style="fill:url(#SVGID_00000066492675729282292010000001433503362857059216_);" d="M256.96,131.85
		c96.56,103.98,162.82,251.16,183.89,408.45c21.06,157.29-3.24,323.49-67.43,461.23c66.33-120.24,73.38-190.68,146.64-229.61
		c48.01-25.51,105.6,3.95,140.34,52.67c34.74,48.71,51.76,112.77,67.9,174.87c-36.23-144.44-59.35-295.79-52.24-446.93
		c7.11-151.14,46.11-302.56,123.33-419.07C736.52,225.81,700.12,297.64,637.26,390c-22.15,32.54-57.61,89.33-104.25,79.02
		C458.68,452.59,379.39,249.14,256.96,131.85z"/>
	
		<linearGradient id="SVGID_00000124865223445986799130000004814993200498206897_" gradientUnits="userSpaceOnUse" x1="597.6003" y1="842.6828" x2="1119.3474" y2="320.9358">
		<stop  offset="0" style="stop-color:#FF3D2C"/>
		<stop  offset="1" style="stop-color:#F69F54"/>
	</linearGradient>
	<path style="fill:url(#SVGID_00000124865223445986799130000004814993200498206897_);" d="M859.04,826.12
		c-16.09-22.22-41.92-28.92-65.37-22.84c-31.51,8.16-49.79,49.08-47.41,89.26c2.44,41.23,8.54,58.03,29.87,128.66
		c-128.03-292.53-88.79-705.47,81.09-962.4C818.8,166.45,788,296.7,820.79,376.25c32.79,79.56,112.48,116.81,215.62,77.11
		c-115.73,142.22-152.18,376.14-87.63,562.42C924.12,952.79,896.67,878.08,859.04,826.12z"/>
	
		<linearGradient id="SVGID_00000000944159778627125450000005826788655991291809_" gradientUnits="userSpaceOnUse" x1="216.6516" y1="1014.4445" x2="216.6516" y2="88.6823">
		<stop  offset="0" style="stop-color:#8145E5"/>
		<stop  offset="1" style="stop-color:#DB5675"/>
	</linearGradient>
	<path style="fill:url(#SVGID_00000000944159778627125450000005826788655991291809_);" d="M343.95,812.04
		c23.16,44.11,10.12,76.98,1.15,165.36c46.77-150.81,80.04-336.54,53.04-494.75c-27-158.21-109.08-309.93-219.48-393.97
		c24.97,50.25,44.62,115.56,52.22,173.97c7.6,58.41-3.58,123.77-39.09,162.82c-43.64,47.99-109.18,44.14-166.32,31.12
		c68.85,59.6,131.21,104.22,155.01,204.71s8.9,256.15-22.86,353.14c24.69-50.79,31.48-80.52,42.98-119.5
		c11.5-38.99,27.45-70.28,54.6-94.19C282.36,776.85,325.71,777.32,343.95,812.04z"/>
	
		<linearGradient id="SVGID_00000023270783708515646110000014588907885993777810_" gradientUnits="userSpaceOnUse" x1="216.3283" y1="571.8649" x2="216.3283" y2="88.6823">
		<stop  offset="0" style="stop-color:#8145E5"/>
		<stop  offset="1" style="stop-color:#DB5675"/>
	</linearGradient>
	<path style="opacity:0.39;fill:url(#SVGID_00000023270783708515646110000014588907885993777810_);" d="M178.66,88.68
		c24.97,50.25,44.62,115.56,52.22,173.97c7.6,58.41-3.58,123.77-39.09,162.82c-43.64,47.99-109.18,44.14-166.32,31.12
		c1.65,1.42,3.28,2.83,4.92,4.24c106.48,58.55,235.62,98.03,376.77,111.03c-1.19-30.4-4.1-60.27-9.04-89.21
		C371.14,324.44,289.06,172.72,178.66,88.68z"/>
	
		<linearGradient id="SVGID_00000181782394214905014510000009268017409962875053_" gradientUnits="userSpaceOnUse" x1="453.8922" y1="230.4569" x2="613.6749" y2="230.4569">
		<stop  offset="0" style="stop-color:#24B3C2"/>
		<stop  offset="1" style="stop-color:#5EFFA4"/>
	</linearGradient>
	
		<ellipse style="fill:url(#SVGID_00000181782394214905014510000009268017409962875053_);" cx="533.78" cy="230.46" rx="79.89" ry="83.5"/>
	
		<linearGradient id="SVGID_00000022521958901637350940000001587073239885635748_" gradientUnits="userSpaceOnUse" x1="883.2172" y1="284.1156" x2="1043" y2="284.1156">
		<stop  offset="0" style="stop-color:#FF3D2C"/>
		<stop  offset="1" style="stop-color:#F69F54"/>
	</linearGradient>
	
		<ellipse style="fill:url(#SVGID_00000022521958901637350940000001587073239885635748_);" cx="963.11" cy="284.12" rx="79.89" ry="83.5"/>
	
		<linearGradient id="SVGID_00000059274128299570089190000008227757618179621513_" gradientUnits="userSpaceOnUse" x1="0" y1="284.1156" x2="159.7828" y2="284.1156">
		<stop  offset="0" style="stop-color:#8145E5"/>
		<stop  offset="1" style="stop-color:#DB5675"/>
	</linearGradient>
	
		<ellipse style="fill:url(#SVGID_00000059274128299570089190000008227757618179621513_);" cx="79.89" cy="284.12" rx="79.89" ry="83.5"/>
</g>
</svg>
