<svg id="Layer_1" data-name="Layer 1" xmlns="http://www.w3.org/2000/svg" viewBox="0 0 500 500"><defs><style>.cls-1{fill:#1b1c20;}</style></defs><path class="cls-1" d="M494.92,199.63a248.64,248.64,0,0,0-37.62-89.42,250.66,250.66,0,0,0-110-90.56A248.83,248.83,0,0,0,300.37,5.08a252.26,252.26,0,0,0-100.74,0A248.64,248.64,0,0,0,110.21,42.7a250.66,250.66,0,0,0-90.56,110A248.83,248.83,0,0,0,5.08,199.63a252.26,252.26,0,0,0,0,100.74A248.64,248.64,0,0,0,42.7,389.79a252.5,252.5,0,0,0,29.61,36.07V426a281.5,281.5,0,0,0,37.89,31.35A249.94,249.94,0,0,0,154,480.89l.15.07a252.94,252.94,0,0,0,57.05,16l.42.07h0A251.91,251.91,0,0,0,250,500c7.13,0,14.26-.3,21.35-.9h.08l.41,0a248.84,248.84,0,0,0,87.25-24.18,257,257,0,0,0,39.18-23.59,239.46,239.46,0,0,0,59-61.5,250.69,250.69,0,0,0,37.62-190.16ZM108.69,346.38l.07-.33c2.86-14.38,16.1-30.33,35.41-42.65,20.62-13.16,45.31-20.71,67.72-20.71H289c22.25,0,47.84,7.8,68.47,20.86,19.53,12.37,32.45,28,34.55,41.84l.05.35.07.36c.08.41,7.67,38.24,6.88,66.33A221.28,221.28,0,0,1,340.84,451l-.71.32-.11.05a220.15,220.15,0,0,1-48.83,15.36l-.57.11-.45.08q-10.11,1.88-20.53,2.8c-4.05.12-8.17.17-12.26.17-14,0-28.08-.67-41.83-2A219.89,219.89,0,0,1,101,412.41C100.25,384.71,108.6,346.79,108.69,346.38Zm142.4-111.51h-2.18c-42.25,0-61.49-36.55-61.49-70.51,0-18.73,5.78-36.75,15.85-49.43,11.12-14,26.47-21.07,45.64-21.07h2.18c42.25,0,61.49,36.55,61.49,70.5,0,18.74-5.78,36.76-15.85,49.43C285.61,227.78,270.25,234.87,251.09,234.87Zm176,146.46c-2-20.34-5.4-37.87-6-40.73a64.79,64.79,0,0,0-5.83-18.16,86.63,86.63,0,0,0-10.67-16.56,115.76,115.76,0,0,0-14.27-14.6,145.26,145.26,0,0,0-17.09-12.62c-23.72-15-51.91-24.08-78.26-25.29a84.18,84.18,0,0,0,24.81-21.24,99.59,99.59,0,0,0,16.8-32,120,120,0,0,0,0-71.52,99.64,99.64,0,0,0-16.8-32,83.82,83.82,0,0,0-28.88-23.38,89.88,89.88,0,0,0-39.82-8.82h-2.18a89.88,89.88,0,0,0-39.82,8.82A83.82,83.82,0,0,0,180.21,96.6a99.64,99.64,0,0,0-16.8,32,119.83,119.83,0,0,0,0,71.52,99.59,99.59,0,0,0,16.8,32,84.4,84.4,0,0,0,24.87,21.28A150.75,150.75,0,0,0,168,260.18a168.22,168.22,0,0,0-20.63,8,163.15,163.15,0,0,0-19,10.42,145.35,145.35,0,0,0-16.94,12.58,118.65,118.65,0,0,0-14.24,14.54,91.32,91.32,0,0,0-10.84,16.4,70.24,70.24,0,0,0-6.41,18.05c-.49,2.22-4.44,20.42-6.75,41.49A219.39,219.39,0,0,1,29.46,250C29.46,128.39,128.39,29.46,250,29.46S470.54,128.39,470.54,250A219.38,219.38,0,0,1,427.07,381.33Z" transform="translate(0 0)"/></svg>